<svg xmlns="http://www.w3.org/2000/svg" xmlns:xlink="http://www.w3.org/1999/xlink" width="18" height="18" version="1.1" viewBox="0 0 18 18"><title>Shape</title><desc>Created with Sketch.</desc><g id="Screens" fill="none" fill-rule="evenodd" stroke="none" stroke-width="1"><g id="Player" fill="#FFF" transform="translate(-251.000000, -617.000000)"><g id="Volume" transform="translate(24.000000, 614.000000)"><g id="Volume-Up" transform="translate(224.000000, 0.000000)"><path id="Shape" d="M3,9 L3,15 L7,15 L12,20 L12,4 L7,9 L3,9 Z M16.5,12 C16.5,10.23 15.48,8.71 14,7.97 L14,16.02 C15.48,15.29 16.5,13.77 16.5,12 Z M14,3.23 L14,5.29 C16.89,6.15 19,8.83 19,12 C19,15.17 16.89,17.85 14,18.71 L14,20.77 C18.01,19.86 21,16.28 21,12 C21,7.72 18.01,4.14 14,3.23 L14,3.23 Z"/></g></g></g></g></svg>